<svg xmlns="http://www.w3.org/2000/svg" xmlns:svg="http://www.w3.org/2000/svg" xmlns:xlink="http://www.w3.org/1999/xlink" id="svg8" width="500" height="500" version="1.1" viewBox="0 0 132.292 132.292"><defs id="defs2"><linearGradient id="linearGradient3450"><stop style="stop-color:#d400dc;stop-opacity:1" id="stop3446" offset="0"/><stop style="stop-color:#0096cc;stop-opacity:1" id="stop3448" offset="1"/></linearGradient><linearGradient id="linearGradient3452" x1="34.418" x2="97.226" y1="32.03" y2="102.334" gradientTransform="matrix(0.9991241,0,0,0.9991241,0.38222667,-0.3361747)" gradientUnits="userSpaceOnUse" xlink:href="#linearGradient3450"/><filter style="color-interpolation-filters:sRGB" id="filter4972" width="1.216" height="1.27" x="-.108" y="-.135"><feGaussianBlur id="feGaussianBlur4974" stdDeviation="3.277"/></filter><filter id="filter5014" width="1.077" height="1.077" x="-.038" y="-.038" style="color-interpolation-filters:sRGB"><feGaussianBlur id="feGaussianBlur5016" stdDeviation="1.905"/></filter></defs><metadata id="metadata5"/><g id="layer1" style="display:inline"><circle id="circle3352" cx="66.146" cy="68.065" r="59.531" style="display:inline;opacity:.36;fill:#000;fill-opacity:1;fill-rule:evenodd;stroke-width:.256424;filter:url(#filter5014)"/><circle style="display:inline;fill:#fff;fill-opacity:1;fill-rule:evenodd;stroke-width:.256424" id="path1917" cx="66.146" cy="66.146" r="59.531"/></g><g id="layer2" style="display:inline"><path id="path3380" d="m 77.69033,74.069116 c 4.842813,0 14.564839,2.439612 14.564839,7.282425 v 3.641206 H 63.125493 v -3.641206 c 0,-4.842813 9.722025,-7.282425 14.564837,-7.282425 m 0,-3.641207 c 4.041737,0 7.282427,-3.240676 7.282427,-7.282425 0,-4.041737 -3.24069,-7.282412 -7.282427,-7.282412 -4.005337,0 -7.282425,3.240675 -7.282425,7.282412 0,4.041749 3.277088,7.282425 7.282425,7.282425 m 25.48848,-18.206058 v 36.412115 c 0,4.041739 -3.240686,7.282411 -7.282418,7.282411 H 37.63701 c -4.005322,0 -7.282411,-3.240672 -7.282411,-7.282411 V 44.93944 c 0,-4.04175 3.277089,-7.282426 7.282411,-7.282426 h 21.847263 l 7.282425,7.282426 h 29.129694 c 4.041732,0 7.282418,3.277091 7.282418,7.282411 m -7.282418,0 H 37.63701 v 36.412115 h 58.259382 z" style="display:inline;opacity:.16;fill:#000;fill-opacity:1;fill-rule:nonzero;stroke:none;stroke-width:3.641;stroke-miterlimit:4;stroke-dasharray:none;filter:url(#filter4972)"/><path style="display:inline;fill:url(#linearGradient3452);fill-opacity:1;fill-rule:nonzero;stroke:none;stroke-width:3.63782;stroke-miterlimit:4;stroke-dasharray:none" id="path3454" d="m 77.721353,72.363541 c 4.838571,0 14.552081,2.437476 14.552081,7.276047 v 3.638016 H 63.169272 v -3.638016 c 0,-4.838571 9.71351,-7.276047 14.552081,-7.276047 m 0,-3.638017 c 4.038197,0 7.276047,-3.237838 7.276047,-7.276046 0,-4.038197 -3.23785,-7.276034 -7.276047,-7.276034 -4.001829,0 -7.276047,3.237837 -7.276047,7.276034 0,4.038208 3.274218,7.276046 7.276047,7.276046 M 103.18752,50.535413 v 36.380221 c 0,4.038199 -3.23786,7.276032 -7.276052,7.276032 H 37.703116 c -4.001814,0 -7.276033,-3.237833 -7.276033,-7.276032 V 43.25938 c 0,-4.03821 3.274219,-7.276047 7.276033,-7.276047 h 21.828127 l 7.276045,7.276047 h 29.10418 c 4.038192,0 7.276052,3.274221 7.276052,7.276033 m -7.276052,0 H 37.703116 v 36.380221 h 58.208352 z"/></g></svg>